<svg id="Capa_1" enable-background="new 0 0 509 509" height="512" viewBox="0 0 509 509" width="512" xmlns="http://www.w3.org/2000/svg"><g id="XMLID_570_"><g id="XMLID_404_"><g id="XMLID_83_"><path id="XMLID_84_" d="m23.119 370.5v41.796c0 32.839 30.128 59.556 67.162 59.556h328.439c37.033 0 67.162-26.717 67.162-59.556v-41.796z" fill="#ffc170"/></g><path id="XMLID_169_" d="m254.5 370.5v101.352h164.22c37.033 0 67.162-26.717 67.162-59.556v-41.796z" fill="#ffb13b"/><g id="XMLID_351_"><path id="XMLID_87_" d="m472.87 302.297h-436.74c-19.922 0-36.13 16.208-36.13 36.13s16.208 36.13 36.13 36.13h218.37l117-15 101.37 15c19.922 0 36.13-16.208 36.13-36.13s-16.208-36.13-36.13-36.13z" fill="#ffa8ad"/></g><path id="XMLID_170_" d="m472.87 302.297h-218.37v72.26h218.37c19.922 0 36.13-16.208 36.13-36.13s-16.208-36.13-36.13-36.13z" fill="#ff808c"/><g id="XMLID_86_"><path id="XMLID_89_" d="m480.063 219.693-1.836-.95h-447.55l-1.837.95c-17.52 9.059-28.84 27.478-28.84 46.925 0 29.047 23.631 52.679 52.679 52.679h403.643c29.047 0 52.679-23.632 52.679-52.679-.001-19.417-11.36-37.836-28.938-46.925z" fill="#d18a56"/></g><path id="XMLID_168_" d="m480.063 219.693-1.836-.95h-223.727v100.553h201.821c29.047 0 52.679-23.632 52.679-52.679 0-19.416-11.359-37.835-28.937-46.924z" fill="#b56d3c"/><g id="XMLID_377_"><path id="XMLID_91_" d="m254.497 182.635-168.711 65.436 168.714 92.201 74.896-61.772 93.812-30.429z" fill="#ffee6e"/></g><path id="XMLID_152_" d="m254.5 182.636v157.636l168.708-92.201z" fill="#ffda45"/><g id="XMLID_1235_"><path id="XMLID_92_" d="m10.918 168.438v24.66c0 26.486 17.712 49.781 44.076 57.966l1.079.336c10.237 3.187 20.823 6.482 41.704 6.482s31.467-3.295 41.704-6.482c9.439-2.939 18.355-5.714 36.651-5.714 18.297 0 27.213 2.775 36.653 5.714 10.237 3.187 20.824 6.482 41.706 6.482 20.883 0 31.469-3.295 41.707-6.482 9.44-2.939 18.356-5.714 36.654-5.714 18.299 0 27.216 2.776 36.656 5.714 10.238 3.187 20.825 6.482 41.708 6.482 20.882 0 31.468-3.295 41.706-6.481l1.082-.337c26.364-8.184 44.077-31.479 44.077-57.966v-24.659h-487.163z" fill="#b4eb91"/></g><path id="XMLID_124_" d="m254.5 168.438v89.444c20.877-.001 31.461-3.296 41.698-6.482 9.44-2.939 18.356-5.714 36.654-5.714 18.299 0 27.216 2.776 36.656 5.714 10.238 3.187 20.825 6.482 41.708 6.482 20.882 0 31.468-3.295 41.706-6.481l1.082-.337c26.364-8.184 44.077-31.479 44.077-57.966v-24.659h-243.581z" fill="#82cd64"/><g id="XMLID_1240_"><path id="XMLID_174_" d="m361.316 37.148h-213.632c-75.413 0-136.766 61.353-136.766 136.766v11.524h243.582l133.261-10 110.321 10v-11.524c0-75.413-61.353-136.766-136.766-136.766z" fill="#ffc170"/></g><path id="XMLID_111_" d="m361.316 37.148h-106.816v148.291h243.582v-11.524c0-75.414-61.353-136.767-136.766-136.767z" fill="#ffb13b"/><g id="XMLID_730_"><path id="XMLID_749_" d="m144.922 90.749h30v31.755h-30z" fill="#d18a56" transform="matrix(.688 -.726 .726 .688 -27.486 149.317)"/></g><g id="XMLID_726_"><path id="XMLID_748_" d="m254.5 152.104-21.846-21.848 21.846-21.63 21.839 21.708z" fill="#d18a56"/></g><g id="XMLID_725_"><path id="XMLID_747_" d="m336.239 89.611h30v31.755h-30z" fill="#b56d3c" transform="matrix(.688 -.726 .726 .688 33.027 287.801)"/></g><path id="XMLID_236_" d="m254.5 108.626v43.478l21.839-21.77z" fill="#b56d3c"/></g></g></svg>